<?xml version="1.0" encoding="UTF-8" standalone="no"?><!DOCTYPE svg PUBLIC "-//W3C//DTD SVG 1.1//EN" "http://www.w3.org/Graphics/SVG/1.1/DTD/svg11.dtd"><svg width="100%" height="100%" viewBox="0 0 2509 2025" version="1.1" xmlns="http://www.w3.org/2000/svg" xmlns:xlink="http://www.w3.org/1999/xlink" xml:space="preserve" xmlns:serif="http://www.serif.com/" style="fill-rule:evenodd;clip-rule:evenodd;stroke-linecap:round;stroke-linejoin:round;stroke-miterlimit:10;"><g><rect x="1045.83" y="1579.17" width="416.667" height="412.5" style="fill:#353535;"/><rect x="841.667" y="1958.33" width="825" height="66.667" style="fill:#353535;"/><path d="M1462.5,1958.33l204.167,0l-0,66.667l-435.417,0l0,-445.833l231.25,-0l-0,379.166Z" style="fill:#3b3b3b;"/><rect x="1045.83" y="1579.17" width="416.667" height="125" style="fill:#212121;"/><rect x="1231.25" y="1579.17" width="231.25" height="125" style="fill:#262626;"/><rect x="41.667" y="1422.92" width="2425" height="156.25" style="fill:#3c3c3c;stroke:#3c3c3c;stroke-width:83.09px;"/><path d="M2508.21,1422.92c0,-22.946 -18.601,-41.548 -41.547,-41.548c-402.717,-2.804 -1235.42,0 -1235.42,0l0,239.345l1235.42,0c22.946,0 41.547,-18.601 41.547,-41.547l0,-156.25Z" style="fill:#3c3c3c;"/><rect x="41.667" y="41.667" width="2425" height="1381.25" style="fill:none;stroke:#282828;stroke-width:83.33px;stroke-miterlimit:0;"/><path d="M2470.24,0.215c14.217,1.418 26.359,9.729 32.899,21.477c3.311,5.927 5.191,12.735 5.191,19.975l0,1381.25c0,2.308 -0.191,4.572 -0.609,6.768c-1.025,6.256 -3.474,12.043 -7.019,17.029c-3.762,5.318 -8.757,9.729 -14.576,12.84c-4.809,2.566 -10.18,4.245 -15.886,4.814l-4.338,0.215l-1234.65,0l0,-83.214l1192.23,-0.119l0,-1297.92l-1192.23,0l0,-83.333l1234.65,0l4.338,0.215Z" style="fill:#2e2e2e;"/><rect x="83.333" y="83.333" width="2341.67" height="1297.92" style="fill:none;"/><g><rect x="1273.96" y="389.851" width="1060.42" height="684.88" style="fill:#3c3c3c;stroke:#3c3c3c;stroke-width:15.74px;"/><g><path d="M1345.23,474.613l-0,59.623l11.162,0l-0,-39.112l25.279,39.112l10.751,0l0,-59.623l-11.244,0l0,39.195l-25.279,-39.195l-10.669,0Z" style="fill:#fff;fill-rule:nonzero;"/><path d="M1410.2,471.956c-1.915,-0 -3.556,0.692 -4.924,2.076c-1.368,1.384 -2.052,3.045 -2.052,4.982c0,2.049 0.684,3.779 2.052,5.19c1.368,1.412 3.037,2.118 5.006,2.118c1.861,0 3.475,-0.692 4.843,-2.076c1.368,-1.384 2.052,-3.073 2.052,-5.065c-0,-1.993 -0.684,-3.696 -2.052,-5.107c-1.368,-1.412 -3.01,-2.118 -4.925,-2.118Zm-5.499,18.186l0,44.094l10.998,0l0,-44.094l-10.998,-0Z" style="fill:#fff;fill-rule:nonzero;"/><path d="M1469.43,499.027c-2.188,-3.211 -5.006,-5.688 -8.453,-7.432c-3.447,-1.744 -7.332,-2.616 -11.655,-2.616c-4.65,0 -8.863,1.024 -12.639,3.073c-3.775,2.048 -6.716,4.872 -8.823,8.47c-2.106,3.598 -3.16,7.529 -3.16,11.792c0,6.2 2.162,11.598 6.484,16.193c4.323,4.594 10.314,6.892 17.974,6.892c8.591,-0 15.211,-3.073 19.862,-9.218l-8.618,-5.978c-2.79,3.377 -6.62,5.065 -11.49,5.065c-3.939,0 -7.127,-1.19 -9.561,-3.571c-2.435,-2.38 -3.653,-5.453 -3.653,-9.217c0,-3.875 1.259,-7.045 3.776,-9.508c2.517,-2.464 5.827,-3.696 9.931,-3.696c2.243,0 4.213,0.346 5.909,1.038c1.696,0.692 3.392,1.952 5.088,3.779l9.028,-5.066Z" style="fill:#fff;fill-rule:nonzero;"/><path d="M1501.08,488.979c-5.69,0 -10.724,1.993 -15.101,5.979c-4.98,4.595 -7.469,10.353 -7.469,17.273c-0,6.421 2.202,11.888 6.607,16.4c4.404,4.512 9.725,6.768 15.963,6.768c4.268,-0 8.166,-1.024 11.695,-3.073c3.53,-2.048 6.32,-4.885 8.372,-8.511c2.052,-3.626 3.078,-7.515 3.078,-11.667c-0,-4.152 -1.026,-8.014 -3.078,-11.585c-2.052,-3.57 -4.883,-6.394 -8.495,-8.47c-3.611,-2.076 -7.468,-3.114 -11.572,-3.114Zm0.164,10.463c3.447,0 6.292,1.177 8.536,3.53c2.243,2.352 3.365,5.411 3.365,9.176c-0,3.819 -1.149,6.933 -3.447,9.342c-2.298,2.408 -5.144,3.612 -8.536,3.612c-3.392,-0 -6.21,-1.204 -8.453,-3.612c-2.244,-2.409 -3.365,-5.523 -3.365,-9.342c-0,-3.71 1.135,-6.754 3.406,-9.135c2.27,-2.38 5.102,-3.571 8.494,-3.571Z" style="fill:#fff;fill-rule:nonzero;"/><rect x="1533.22" y="473.119" width="10.998" height="61.118" style="fill:#fff;fill-rule:nonzero;"/><path d="M1587.52,490.142l-0,4.816c-1.97,-1.993 -4.104,-3.487 -6.402,-4.484c-2.298,-0.996 -4.76,-1.495 -7.387,-1.495c-5.69,0 -10.519,2.173 -14.486,6.519c-3.966,4.346 -5.95,9.923 -5.95,16.733c0,6.588 2.052,12.096 6.156,16.525c4.103,4.429 8.973,6.643 14.609,6.643c2.517,-0 4.856,-0.457 7.017,-1.37c2.161,-0.914 4.309,-2.395 6.443,-4.443l-0,4.65l10.916,0l-0,-44.094l-10.916,-0Zm-11.491,9.051c3.448,0 6.306,1.191 8.577,3.571c2.271,2.381 3.406,5.481 3.406,9.301c0,3.93 -1.135,7.113 -3.406,9.549c-2.271,2.436 -5.129,3.654 -8.577,3.654c-3.337,0 -6.141,-1.232 -8.412,-3.695c-2.271,-2.464 -3.406,-5.606 -3.406,-9.425c-0,-3.765 1.122,-6.865 3.365,-9.301c2.243,-2.436 5.061,-3.654 8.453,-3.654Z" style="fill:#fff;fill-rule:nonzero;"/><path d="M1637.48,496.287c-1.751,-2.325 -3.871,-4.124 -6.361,-5.398c-2.49,-1.273 -5.157,-1.91 -8.002,-1.91c-4.159,0 -7.565,1.232 -10.218,3.696c-2.654,2.463 -3.981,5.439 -3.981,8.926c0,5.426 3.529,9.938 10.588,13.536l3.693,1.827c3.173,1.661 4.76,3.349 4.76,5.065c0,0.886 -0.451,1.689 -1.354,2.409c-0.903,0.719 -2.066,1.079 -3.488,1.079c-1.313,0 -2.845,-0.484 -4.596,-1.453c-1.751,-0.969 -3.256,-2.201 -4.514,-3.695l-6.73,7.473c3.83,5.038 8.918,7.557 15.265,7.557c4.761,-0 8.563,-1.315 11.409,-3.944c2.845,-2.63 4.267,-5.91 4.267,-9.841c0,-2.934 -0.779,-5.494 -2.339,-7.681c-1.559,-2.187 -4.445,-4.332 -8.659,-6.436l-4.021,-2.076c-1.751,-0.83 -2.845,-1.494 -3.283,-1.993c-0.438,-0.498 -0.657,-1.051 -0.657,-1.66c0,-0.776 0.356,-1.426 1.067,-1.952c0.712,-0.526 1.669,-0.789 2.873,-0.789l0.164,0c2.189,0 4.624,1.357 7.305,4.069l6.812,-6.809Z" style="fill:#fff;fill-rule:nonzero;"/><path d="M1667.54,490.142l18.631,44.094l7.058,0l18.549,-44.094l-11.08,-0l-10.998,25.992l-10.998,-25.992l-11.162,-0Z" style="fill:#fff;fill-rule:nonzero;"/><path d="M1725.45,522.694c-1.751,-0 -3.242,0.609 -4.473,1.827c-1.231,1.218 -1.847,2.712 -1.847,4.484c0,1.771 0.616,3.28 1.847,4.526c1.231,1.245 2.722,1.868 4.473,1.868c1.751,-0 3.242,-0.623 4.473,-1.868c1.231,-1.246 1.847,-2.755 1.847,-4.526c-0,-1.772 -0.616,-3.266 -1.847,-4.484c-1.231,-1.218 -2.722,-1.827 -4.473,-1.827Z" style="fill:#fff;fill-rule:nonzero;"/><path d="M1808.03,517.213l0,-0.166c-0.054,-4.982 -1.477,-8.775 -4.267,-11.377c-2.791,-2.601 -7.168,-4.761 -13.132,-6.477c-4.87,-1.384 -8.057,-2.546 -9.562,-3.487c-1.504,-0.942 -2.257,-2.381 -2.257,-4.319l0,-0.166c0,-1.55 0.602,-2.795 1.806,-3.736c1.258,-0.997 3.009,-1.495 5.253,-1.495c4.267,-0 9,1.965 14.198,5.896l6.32,-9.882c-5.8,-5.038 -12.585,-7.557 -20.354,-7.557c-5.691,0 -10.314,1.633 -13.871,4.9c-3.556,3.321 -5.334,7.667 -5.334,13.037l-0,0.166c-0,2.823 0.41,5.287 1.231,7.391c0.766,1.993 2.024,3.653 3.775,4.982c1.806,1.384 3.666,2.491 5.581,3.322c1.915,0.83 4.432,1.661 7.551,2.491c4.432,1.218 7.386,2.353 8.864,3.405c1.477,1.051 2.216,2.435 2.216,4.152l-0,0.166c-0,1.771 -0.712,3.155 -2.134,4.152c-1.423,0.996 -3.365,1.494 -5.827,1.494c-5.527,0 -10.971,-2.408 -16.333,-7.224l-7.14,9.217c6.565,6.367 14.335,9.55 23.308,9.55c6.019,0 10.861,-1.633 14.527,-4.899c3.721,-3.267 5.581,-7.778 5.581,-13.536Z" style="fill:#fff;fill-rule:nonzero;"/><path d="M1849.2,490.142l0,4.816c-1.969,-1.993 -4.103,-3.487 -6.401,-4.484c-2.298,-0.996 -4.761,-1.495 -7.387,-1.495c-5.69,0 -10.519,2.173 -14.486,6.519c-3.967,4.346 -5.95,9.923 -5.95,16.733c-0,6.588 2.052,12.096 6.155,16.525c4.104,4.429 8.974,6.643 14.609,6.643c2.517,-0 4.856,-0.457 7.018,-1.37c2.161,-0.914 4.309,-2.395 6.442,-4.443l0,4.65l10.916,0l0,-44.094l-10.916,-0Zm-11.49,9.051c3.447,0 6.306,1.191 8.577,3.571c2.271,2.381 3.406,5.481 3.406,9.301c-0,3.93 -1.135,7.113 -3.406,9.549c-2.271,2.436 -5.13,3.654 -8.577,3.654c-3.337,0 -6.142,-1.232 -8.412,-3.695c-2.271,-2.464 -3.406,-5.606 -3.406,-9.425c-0,-3.765 1.121,-6.865 3.365,-9.301c2.243,-2.436 5.061,-3.654 8.453,-3.654Z" style="fill:#fff;fill-rule:nonzero;"/><path d="M1883.32,473.119l-10.916,-0l0,61.117l10.916,0l0,-4.65c2.134,2.048 4.282,3.529 6.443,4.443c2.161,0.913 4.5,1.37 7.017,1.37c5.636,-0 10.506,-2.214 14.609,-6.643c4.104,-4.429 6.156,-9.937 6.156,-16.525c-0,-6.81 -1.984,-12.387 -5.951,-16.733c-3.966,-4.346 -8.795,-6.519 -14.486,-6.519c-2.626,0 -5.088,0.499 -7.386,1.495c-2.298,0.997 -4.432,2.491 -6.402,4.484l0,-21.839Zm11.49,26.074c3.393,0 6.211,1.218 8.454,3.654c2.243,2.436 3.365,5.536 3.365,9.301c0,3.819 -1.135,6.961 -3.406,9.425c-2.271,2.463 -5.075,3.695 -8.413,3.695c-3.447,0 -6.306,-1.218 -8.576,-3.654c-2.271,-2.436 -3.406,-5.619 -3.406,-9.549c-0,-3.82 1.135,-6.92 3.406,-9.301c2.27,-2.38 5.129,-3.571 8.576,-3.571Z" style="fill:#fff;fill-rule:nonzero;"/><path d="M1971.6,515.386l0,-2.076c0,-7.307 -2.161,-13.189 -6.483,-17.646c-4.323,-4.456 -9.904,-6.685 -16.743,-6.685c-6.457,0 -11.833,2.215 -16.128,6.644c-4.295,4.428 -6.443,10.02 -6.443,16.774c0,6.588 2.162,12.068 6.484,16.442c4.323,4.373 9.904,6.56 16.743,6.56c4.377,-0 8.166,-0.789 11.367,-2.367c3.201,-1.577 5.951,-4.027 8.249,-7.349l-9.193,-4.401c-2.899,2.879 -6.401,4.318 -10.505,4.318c-3.447,0 -6.279,-0.913 -8.495,-2.74c-2.215,-1.827 -3.57,-4.318 -4.062,-7.474l35.209,0Zm-10.998,-8.719l-23.719,-0c1.259,-2.713 2.599,-4.623 4.022,-5.73c2.298,-1.716 4.979,-2.574 8.043,-2.574c2.791,-0 5.253,0.775 7.387,2.325c2.134,1.55 3.556,3.543 4.267,5.979Z" style="fill:#fff;fill-rule:nonzero;"/><path d="M1979.12,490.142l0,44.094l10.834,0l-0,-20.012c-0,-6.145 0.574,-10.27 1.724,-12.373c1.149,-2.104 2.571,-3.156 4.267,-3.156l0.247,0c0.82,0 1.805,0.305 2.954,0.913l3.365,-9.466c-1.532,-0.775 -3.009,-1.163 -4.432,-1.163c-2.024,0 -3.871,0.568 -5.54,1.703c-1.669,1.135 -3.023,2.809 -4.062,5.024l-0,-5.564l-9.357,-0Z" style="fill:#fff;fill-rule:nonzero;"/><path d="M2009.21,473.119l0,61.117l10.834,0l0,-17.687c0,-4.761 0.164,-7.806 0.493,-9.135c0.601,-2.546 1.696,-4.567 3.283,-6.062c1.586,-1.494 3.501,-2.242 5.745,-2.242c1.696,0 3.132,0.443 4.308,1.329c1.177,0.886 1.998,2.242 2.463,4.069c0.465,1.827 0.697,5.287 0.697,10.38l0,19.348l10.834,0l-0,-29.147c-0.055,-5.093 -1.341,-8.941 -3.857,-11.542c-2.955,-3.045 -6.594,-4.568 -10.916,-4.568c-2.244,0 -4.446,0.457 -6.607,1.37c-2.161,0.914 -4.309,2.312 -6.443,4.194l0,-21.424l-10.834,-0Z" style="fill:#fff;fill-rule:nonzero;"/><path d="M2091.91,490.142l-0,4.816c-1.97,-1.993 -4.104,-3.487 -6.402,-4.484c-2.298,-0.996 -4.76,-1.495 -7.387,-1.495c-5.69,0 -10.519,2.173 -14.486,6.519c-3.967,4.346 -5.95,9.923 -5.95,16.733c0,6.588 2.052,12.096 6.156,16.525c4.103,4.429 8.973,6.643 14.609,6.643c2.517,-0 4.856,-0.457 7.017,-1.37c2.161,-0.914 4.309,-2.395 6.443,-4.443l-0,4.65l10.915,0l0,-44.094l-10.915,-0Zm-11.491,9.051c3.447,0 6.306,1.191 8.577,3.571c2.271,2.381 3.406,5.481 3.406,9.301c0,3.93 -1.135,7.113 -3.406,9.549c-2.271,2.436 -5.13,3.654 -8.577,3.654c-3.337,0 -6.141,-1.232 -8.412,-3.695c-2.271,-2.464 -3.406,-5.606 -3.406,-9.425c-0,-3.765 1.121,-6.865 3.365,-9.301c2.243,-2.436 5.061,-3.654 8.453,-3.654Z" style="fill:#fff;fill-rule:nonzero;"/><path d="M2147.36,490.142l0,4.816c-2.243,-2.103 -4.473,-3.626 -6.689,-4.567c-2.216,-0.941 -4.582,-1.412 -7.099,-1.412c-5.362,0 -9.985,1.91 -13.87,5.73c-4.323,4.318 -6.484,9.965 -6.484,16.94c-0,6.533 2.024,11.931 6.073,16.193c4.049,4.263 9.001,6.394 14.856,6.394c2.681,0 5.074,-0.429 7.181,-1.287c2.107,-0.858 4.117,-2.256 6.032,-4.193c0,3.598 -0.369,6.117 -1.108,7.556c-0.738,1.44 -1.997,2.616 -3.775,3.53c-1.778,0.913 -4.145,1.37 -7.099,1.37c-2.298,-0 -4.282,-0.319 -5.951,-0.955c-1.668,-0.637 -3.05,-1.564 -4.144,-2.782l-12.065,-0c0.985,2.989 2.476,5.536 4.473,7.64c1.997,2.103 4.446,3.695 7.345,4.775c2.9,1.079 6.484,1.619 10.752,1.619c8.043,-0 14.062,-2.381 18.056,-7.142c2.955,-3.487 4.432,-8.968 4.432,-16.442l0,-37.783l-10.916,-0Zm-11.326,9.217c3.502,0 6.361,1.149 8.577,3.447c2.216,2.297 3.324,5.273 3.324,8.926c-0,3.71 -1.108,6.713 -3.324,9.01c-2.216,2.298 -5.02,3.446 -8.413,3.446c-3.447,0 -6.319,-1.176 -8.617,-3.529c-2.298,-2.353 -3.447,-5.356 -3.447,-9.01c-0,-3.543 1.121,-6.477 3.365,-8.802c2.243,-2.325 5.088,-3.488 8.535,-3.488Z" style="fill:#fff;fill-rule:nonzero;"/><path d="M2214.3,515.386l-0,-2.076c-0,-7.307 -2.162,-13.189 -6.484,-17.646c-4.323,-4.456 -9.904,-6.685 -16.743,-6.685c-6.457,0 -11.832,2.215 -16.128,6.644c-4.295,4.428 -6.442,10.02 -6.442,16.774c-0,6.588 2.161,12.068 6.483,16.442c4.323,4.373 9.904,6.56 16.743,6.56c4.378,-0 8.167,-0.789 11.368,-2.367c3.2,-1.577 5.95,-4.027 8.248,-7.349l-9.192,-4.401c-2.9,2.879 -6.402,4.318 -10.506,4.318c-3.447,0 -6.278,-0.913 -8.494,-2.74c-2.216,-1.827 -3.571,-4.318 -4.063,-7.474l35.21,0Zm-10.998,-8.719l-23.72,-0c1.259,-2.713 2.599,-4.623 4.022,-5.73c2.298,-1.716 4.979,-2.574 8.043,-2.574c2.791,-0 5.253,0.775 7.387,2.325c2.134,1.55 3.556,3.543 4.268,5.979Z" style="fill:#fff;fill-rule:nonzero;"/><path d="M2224.36,490.142l-0,44.094l10.916,0l-0,-17.687c-0,-4.595 0.164,-7.585 0.492,-8.969c0.602,-2.657 1.696,-4.733 3.283,-6.228c1.587,-1.494 3.502,-2.242 5.745,-2.242c1.696,0 3.132,0.443 4.309,1.329c1.176,0.886 1.997,2.2 2.462,3.944c0.465,1.744 0.698,5.246 0.698,10.505l-0,19.348l10.833,0l0,-29.147c-0.054,-5.093 -1.34,-8.941 -3.857,-11.542c-3.009,-3.045 -6.675,-4.568 -10.998,-4.568c-2.134,0 -4.213,0.416 -6.237,1.246c-2.025,0.83 -4.268,2.297 -6.73,4.401l-0,-4.484l-10.916,-0Z" style="fill:#fff;fill-rule:nonzero;"/><path d="M1430.53,556.906l-0,16.276l-5.581,0l-0,9.467l5.581,0l-0,34.628l10.915,-0l0,-34.628l6.484,0l0,-9.467l-6.484,0l0,-16.276l-10.915,0Z" style="fill:#fff;fill-rule:nonzero;"/><path d="M1459.39,554.997c-1.915,-0 -3.557,0.692 -4.925,2.076c-1.368,1.384 -2.052,3.044 -2.052,4.982c0,2.048 0.684,3.778 2.052,5.19c1.368,1.412 3.037,2.118 5.007,2.118c1.86,-0 3.474,-0.692 4.842,-2.076c1.368,-1.385 2.052,-3.073 2.052,-5.066c-0,-1.993 -0.684,-3.695 -2.052,-5.107c-1.368,-1.412 -3.009,-2.117 -4.924,-2.117Zm-5.499,18.185l-0,44.095l10.998,-0l-0,-44.095l-10.998,0Z" style="fill:#fff;fill-rule:nonzero;"/><path d="M1486.85,573.182l-10.916,0l-0,60.205l10.916,-0l-0,-20.76c2.133,2.048 4.281,3.529 6.442,4.442c2.162,0.914 4.501,1.37 7.018,1.37c5.635,0 10.505,-2.214 14.609,-6.643c4.103,-4.429 6.155,-9.937 6.155,-16.525c0,-6.809 -1.983,-12.387 -5.95,-16.733c-3.967,-4.345 -8.796,-6.518 -14.486,-6.518c-2.626,-0 -5.089,0.498 -7.387,1.495c-2.298,0.996 -4.432,2.491 -6.401,4.484l-0,-4.817Zm11.49,9.052c3.392,-0 6.21,1.218 8.453,3.654c2.244,2.435 3.365,5.536 3.365,9.3c0,3.82 -1.135,6.962 -3.406,9.425c-2.27,2.464 -5.075,3.696 -8.412,3.696c-3.447,-0 -6.306,-1.218 -8.577,-3.654c-2.271,-2.436 -3.406,-5.619 -3.406,-9.55c0,-3.82 1.135,-6.92 3.406,-9.3c2.271,-2.381 5.13,-3.571 8.577,-3.571Z" style="fill:#fff;fill-rule:nonzero;"/><path d="M1542.3,573.182l-10.915,0l-0,60.205l10.915,-0l0,-20.76c2.134,2.048 4.282,3.529 6.443,4.442c2.161,0.914 4.5,1.37 7.017,1.37c5.636,0 10.506,-2.214 14.609,-6.643c4.104,-4.429 6.156,-9.937 6.156,-16.525c-0,-6.809 -1.984,-12.387 -5.95,-16.733c-3.967,-4.345 -8.796,-6.518 -14.486,-6.518c-2.627,-0 -5.089,0.498 -7.387,1.495c-2.298,0.996 -4.432,2.491 -6.402,4.484l0,-4.817Zm11.491,9.052c3.392,-0 6.21,1.218 8.453,3.654c2.244,2.435 3.365,5.536 3.365,9.3c0,3.82 -1.135,6.962 -3.406,9.425c-2.271,2.464 -5.075,3.696 -8.412,3.696c-3.447,-0 -6.306,-1.218 -8.577,-3.654c-2.271,-2.436 -3.406,-5.619 -3.406,-9.55c-0,-3.82 1.135,-6.92 3.406,-9.3c2.271,-2.381 5.13,-3.571 8.577,-3.571Z" style="fill:#fff;fill-rule:nonzero;"/><path d="M1630.58,598.427l-0,-2.076c-0,-7.308 -2.162,-13.19 -6.484,-17.646c-4.323,-4.457 -9.904,-6.685 -16.743,-6.685c-6.457,-0 -11.832,2.214 -16.128,6.643c-4.295,4.429 -6.442,10.02 -6.442,16.774c-0,6.588 2.161,12.069 6.483,16.442c4.323,4.374 9.904,6.56 16.743,6.56c4.378,0 8.167,-0.788 11.367,-2.366c3.201,-1.578 5.951,-4.028 8.249,-7.349l-9.192,-4.401c-2.9,2.878 -6.402,4.318 -10.506,4.318c-3.447,-0 -6.278,-0.914 -8.494,-2.741c-2.216,-1.827 -3.571,-4.318 -4.063,-7.473l35.21,-0Zm-10.998,-8.72l-23.72,0c1.259,-2.712 2.599,-4.622 4.022,-5.729c2.298,-1.717 4.979,-2.575 8.043,-2.575c2.791,0 5.253,0.775 7.387,2.326c2.134,1.55 3.556,3.543 4.268,5.978Z" style="fill:#fff;fill-rule:nonzero;"/><path d="M1672.9,556.159l-0,21.84c-1.97,-1.993 -4.104,-3.488 -6.402,-4.484c-2.298,-0.997 -4.76,-1.495 -7.387,-1.495c-5.69,-0 -10.519,2.173 -14.486,6.518c-3.967,4.346 -5.95,9.924 -5.95,16.733c-0,6.588 2.052,12.096 6.155,16.525c4.104,4.429 8.974,6.643 14.61,6.643c2.516,0 4.856,-0.456 7.017,-1.37c2.161,-0.913 4.309,-2.394 6.443,-4.442l-0,4.65l10.915,-0l0,-61.118l-10.915,0Zm-11.491,26.075c3.447,-0 6.306,1.19 8.577,3.571c2.271,2.38 3.406,5.48 3.406,9.3c0,3.931 -1.135,7.114 -3.406,9.55c-2.271,2.436 -5.13,3.654 -8.577,3.654c-3.337,-0 -6.142,-1.232 -8.412,-3.696c-2.271,-2.463 -3.406,-5.605 -3.406,-9.425c-0,-3.764 1.121,-6.865 3.365,-9.3c2.243,-2.436 5.061,-3.654 8.453,-3.654Z" style="fill:#fff;fill-rule:nonzero;"/><path d="M1737.6,556.159c-6.621,0 -11.791,2.685 -15.512,8.055c-3.338,4.927 -5.006,12.871 -5.006,23.833c-0,7.861 0.848,13.909 2.544,18.144c1.696,4.235 4.062,7.391 7.099,9.467c3.037,2.076 6.771,3.114 11.203,3.114c4.432,-0 8.098,-1.038 10.998,-3.114c2.9,-2.076 5.212,-5.315 6.935,-9.716c1.724,-4.401 2.586,-10.56 2.586,-18.477c-0,-7.805 -0.849,-13.909 -2.545,-18.31c-1.696,-4.401 -4.09,-7.667 -7.181,-9.799c-3.092,-2.131 -6.799,-3.197 -11.121,-3.197Zm0.246,10.795c2.791,0 5.061,1.481 6.812,4.443c1.751,2.962 2.627,8.373 2.627,16.234c-0,7.696 -0.985,13.204 -2.955,16.525c-1.587,2.713 -3.748,4.069 -6.484,4.069c-2.845,0 -5.143,-1.439 -6.894,-4.318c-1.751,-2.878 -2.626,-8.082 -2.626,-15.611c-0,-5.813 0.383,-10.214 1.149,-13.204c0.766,-2.989 1.874,-5.093 3.324,-6.311c1.45,-1.218 3.132,-1.827 5.047,-1.827Z" style="fill:#fff;fill-rule:nonzero;"/><path d="M1772.77,606.066l-7.469,18.435l5.417,2.658l9.931,-17.107l-7.879,-3.986Z" style="fill:#fff;fill-rule:nonzero;"/><path d="M1799.75,557.654l-6.566,10.629l12.147,-0l-0,48.994l11.162,-0l-0,-59.623l-16.743,-0Z" style="fill:#fff;fill-rule:nonzero;"/><path d="M1849.04,572.352c0.493,-1.55 1.396,-2.823 2.709,-3.82c1.313,-0.996 2.763,-1.495 4.35,-1.495c1.805,0 3.269,0.54 4.391,1.62c1.121,1.079 1.682,2.422 1.682,4.027c0,1.218 -0.369,2.381 -1.108,3.488c-0.739,1.107 -1.765,1.979 -3.078,2.616c-1.313,0.636 -3.31,1.065 -5.991,1.287l-0,9.715c4.377,0.056 7.728,1.025 10.054,2.907c2.325,1.882 3.488,4.18 3.488,6.892c0,2.436 -0.862,4.512 -2.585,6.228c-1.724,1.716 -3.899,2.575 -6.525,2.575c-2.517,-0 -4.596,-0.748 -6.238,-2.243c-1.641,-1.494 -2.708,-3.792 -3.201,-6.892l-11.079,0c0.328,6.034 2.298,10.795 5.909,14.283c3.611,3.488 8.262,5.232 13.952,5.232c6.074,-0 11.053,-1.855 14.938,-5.564c3.884,-3.709 5.827,-8.249 5.827,-13.619c-0,-3.654 -1.012,-6.823 -3.037,-9.508c-2.024,-2.685 -4.815,-4.581 -8.371,-5.688c2.735,-1.329 4.815,-3.086 6.237,-5.273c1.423,-2.187 2.134,-4.609 2.134,-7.266c0,-4.263 -1.641,-7.944 -4.924,-11.045c-3.283,-3.1 -7.332,-4.65 -12.147,-4.65c-5.417,0 -9.904,1.855 -13.46,5.564c-2.572,2.657 -4.131,6.2 -4.678,10.629l10.751,-0Z" style="fill:#fff;fill-rule:nonzero;"/><path d="M1896.28,572.352c0.492,-1.55 1.395,-2.823 2.708,-3.82c1.313,-0.996 2.763,-1.495 4.35,-1.495c1.806,0 3.269,0.54 4.391,1.62c1.122,1.079 1.682,2.422 1.682,4.027c0,1.218 -0.369,2.381 -1.107,3.488c-0.739,1.107 -1.765,1.979 -3.078,2.616c-1.313,0.636 -3.311,1.065 -5.992,1.287l0,9.715c4.378,0.056 7.729,1.025 10.054,2.907c2.326,1.882 3.489,4.18 3.489,6.892c-0,2.436 -0.862,4.512 -2.586,6.228c-1.723,1.716 -3.898,2.575 -6.525,2.575c-2.517,-0 -4.596,-0.748 -6.237,-2.243c-1.642,-1.494 -2.709,-3.792 -3.201,-6.892l-11.08,0c0.328,6.034 2.298,10.795 5.909,14.283c3.612,3.488 8.262,5.232 13.953,5.232c6.073,-0 11.052,-1.855 14.937,-5.564c3.885,-3.709 5.827,-8.249 5.827,-13.619c0,-3.654 -1.012,-6.823 -3.036,-9.508c-2.025,-2.685 -4.815,-4.581 -8.372,-5.688c2.736,-1.329 4.815,-3.086 6.238,-5.273c1.422,-2.187 2.134,-4.609 2.134,-7.266c-0,-4.263 -1.642,-7.944 -4.925,-11.045c-3.283,-3.1 -7.332,-4.65 -12.147,-4.65c-5.416,0 -9.903,1.855 -13.46,5.564c-2.571,2.657 -4.131,6.2 -4.678,10.629l10.752,-0Z" style="fill:#fff;fill-rule:nonzero;"/><path d="M1932.86,557.654l-0,10.629l24.704,-0l-22.16,45.838l9.52,4.651l26.592,-55.139l0,-5.979l-38.656,-0Z" style="fill:#fff;fill-rule:nonzero;"/><path d="M2002.23,557.654l18.713,28.815l-19.944,30.808l12.721,-0l13.461,-20.926l13.624,20.926l12.639,-0l-19.862,-30.808l18.713,-28.815l-12.639,-0l-12.475,19.099l-12.311,-19.099l-12.64,-0Z" style="fill:#fff;fill-rule:nonzero;"/><path d="M2068.84,557.654l-10.177,59.623l10.998,-0l6.401,-37.7l12.394,37.7l9.93,-0l12.558,-37.7l6.319,37.7l10.834,-0l-10.013,-59.623l-10.752,-0l-13.87,41.603l-13.624,-41.603l-10.998,-0Z" style="fill:#fff;fill-rule:nonzero;"/><path d="M2135.37,557.654l-0,59.623l11.244,-0l-0,-25.244l9.684,-0l11.983,25.244l12.229,-0l-13.952,-26.49c3.775,-1.384 6.579,-3.391 8.412,-6.02c1.833,-2.63 2.75,-5.91 2.75,-9.841c-0,-3.709 -1.204,-7.266 -3.612,-10.67c-2.407,-3.405 -5.772,-5.44 -10.095,-6.104c-2.517,-0.387 -8.481,-0.581 -17.892,-0.581l-10.751,0.083Zm11.244,23.251l-0,-12.124l9.028,0c3.009,0 5.307,0.208 6.894,0.623c1.587,0.415 2.708,1.107 3.365,2.076c0.657,0.969 0.985,2.09 0.985,3.363c-0,2.159 -0.684,3.709 -2.052,4.65c-1.368,0.942 -3.83,1.412 -7.387,1.412l-10.833,0Z" style="fill:#fff;fill-rule:nonzero;"/></g><g><g><path d="M2139.91,979.459c1.721,-1.879 2.91,-3.574 3.566,-5.086c0.657,-1.512 0.985,-3.162 0.985,-4.949c0,-2.474 -0.622,-4.811 -1.868,-7.011c-1.245,-2.199 -2.955,-3.883 -5.128,-5.052c-2.174,-1.168 -4.688,-1.752 -7.541,-1.752c-2.898,-0 -5.446,0.584 -7.642,1.752c-2.197,1.169 -3.918,2.807 -5.163,4.915c-1.245,2.108 -1.868,4.444 -1.868,7.01c-0,1.879 0.373,3.666 1.121,5.362c0.747,1.695 1.845,3.299 3.294,4.811c-2.219,1.649 -3.883,3.54 -4.993,5.67c-1.109,2.131 -1.664,4.502 -1.664,7.114c0,3.024 0.691,5.728 2.072,8.11c1.381,2.383 3.238,4.159 5.57,5.327c2.333,1.169 5.469,1.753 9.409,1.753c3.668,-0 6.68,-0.607 9.035,-1.822c2.355,-1.214 4.234,-3.035 5.638,-5.464c1.404,-2.428 2.106,-5.063 2.106,-7.904c0,-2.612 -0.6,-5.04 -1.8,-7.286c-1.2,-2.245 -2.91,-4.078 -5.129,-5.498Zm-10.258,-14.778c1.676,0 3.012,0.493 4.008,1.478c0.997,0.985 1.495,2.28 1.495,3.883c-0,1.65 -0.498,3.002 -1.495,4.056c-0.996,1.054 -2.287,1.581 -3.872,1.581c-1.494,-0 -2.762,-0.527 -3.804,-1.581c-1.042,-1.054 -1.562,-2.383 -1.562,-3.987c-0,-1.604 0.486,-2.909 1.46,-3.918c0.974,-1.008 2.231,-1.512 3.77,-1.512Zm0.34,19.795c2.174,0 3.997,0.688 5.469,2.062c1.471,1.375 2.207,3.07 2.207,5.086c0,2.062 -0.702,3.735 -2.106,5.018c-1.404,1.283 -3.283,1.924 -5.638,1.924c-2.355,0 -4.246,-0.698 -5.672,-2.096c-1.427,-1.398 -2.14,-3.081 -2.14,-5.052c-0,-1.878 0.759,-3.505 2.276,-4.88c1.517,-1.374 3.385,-2.062 5.604,-2.062Z" style="fill:#fff;fill-rule:nonzero;"/><path d="M2168.89,955.609c-5.479,-0 -9.759,2.222 -12.839,6.667c-2.762,4.078 -4.144,10.653 -4.144,19.726c0,6.507 0.702,11.513 2.106,15.018c1.404,3.505 3.363,6.117 5.876,7.835c2.514,1.719 5.605,2.578 9.273,2.578c3.668,-0 6.703,-0.859 9.103,-2.578c2.4,-1.718 4.314,-4.399 5.74,-8.041c1.427,-3.643 2.14,-8.741 2.14,-15.293c0,-6.461 -0.702,-11.513 -2.106,-15.156c-1.404,-3.642 -3.385,-6.346 -5.944,-8.11c-2.559,-1.764 -5.627,-2.646 -9.205,-2.646Zm0.204,8.935c2.31,-0 4.189,1.226 5.639,3.677c1.449,2.452 2.173,6.931 2.173,13.437c0,6.369 -0.815,10.929 -2.445,13.678c-1.314,2.245 -3.102,3.368 -5.367,3.368c-2.355,-0 -4.257,-1.192 -5.706,-3.574c-1.449,-2.383 -2.174,-6.69 -2.174,-12.922c0,-4.811 0.317,-8.454 0.951,-10.928c0.634,-2.475 1.551,-4.216 2.751,-5.224c1.201,-1.008 2.593,-1.512 4.178,-1.512Z" style="fill:#fff;fill-rule:nonzero;"/><path d="M2242.3,958.633l-7.608,-0l-32.879,45.501l7.676,-0l32.811,-45.501Zm-6.566,22.816c-2.817,-0 -5.309,0.986 -7.476,2.96c-2.466,2.275 -3.698,5.125 -3.698,8.551c-0,3.18 1.09,5.886 3.271,8.12c2.181,2.234 4.815,3.351 7.903,3.351c2.113,-0 4.043,-0.507 5.79,-1.521c1.748,-1.014 3.129,-2.419 4.145,-4.214c1.016,-1.796 1.524,-3.721 1.524,-5.777c-0,-2.056 -0.508,-3.967 -1.524,-5.735c-1.016,-1.768 -2.418,-3.166 -4.205,-4.194c-1.788,-1.028 -3.698,-1.541 -5.73,-1.541Zm0.081,5.18c1.707,-0 3.116,0.582 4.226,1.747c1.111,1.165 1.666,2.679 1.666,4.543c0,1.891 -0.568,3.433 -1.706,4.625c-1.138,1.193 -2.547,1.789 -4.226,1.789c-1.68,-0 -3.075,-0.596 -4.186,-1.789c-1.11,-1.192 -1.665,-2.734 -1.665,-4.625c-0,-1.836 0.562,-3.344 1.686,-4.522c1.124,-1.179 2.526,-1.768 4.205,-1.768Zm-27.899,-27.885c-2.817,0 -5.309,0.987 -7.476,2.96c-2.466,2.275 -3.698,5.126 -3.698,8.552c-0,3.179 1.09,5.886 3.271,8.12c2.181,2.234 4.815,3.351 7.903,3.351c2.113,-0 4.043,-0.508 5.79,-1.522c1.748,-1.014 3.129,-2.418 4.145,-4.214c1.016,-1.795 1.524,-3.72 1.524,-5.776c-0,-2.056 -0.508,-3.968 -1.524,-5.735c-1.016,-1.768 -2.418,-3.166 -4.205,-4.194c-1.788,-1.028 -3.698,-1.542 -5.73,-1.542Zm0.081,5.181c1.707,-0 3.116,0.582 4.226,1.747c1.111,1.165 1.666,2.679 1.666,4.543c0,1.891 -0.568,3.433 -1.706,4.625c-1.138,1.192 -2.547,1.788 -4.226,1.788c-1.68,0 -3.075,-0.596 -4.186,-1.788c-1.11,-1.192 -1.665,-2.734 -1.665,-4.625c-0,-1.837 0.562,-3.344 1.686,-4.523c1.124,-1.178 2.526,-1.767 4.205,-1.767Z" style="fill:#fff;fill-rule:nonzero;"/></g><path d="M1399.42,1020.25l635.116,0c21.127,0 38.28,-17.355 38.28,-38.731c-0,-21.377 -17.153,-38.732 -38.28,-38.732l-635.116,0c-21.128,0 -38.281,17.355 -38.281,38.732c0,21.376 17.153,38.731 38.281,38.731Z" style="fill:#fff;"/><path d="M1399.42,1020.25l516.664,0l-0,-77.463l-516.664,0c-21.128,0 -38.281,17.355 -38.281,38.732c0,21.376 17.153,38.731 38.281,38.731Z" style="fill:#f60;"/></g><g><path d="M2147.92,826.541c-0,17.302 -14.047,31.348 -31.348,31.348l-624.805,-0c-17.301,-0 -31.347,-14.046 -31.347,-31.348l-0,-84.402c-0,-17.301 14.046,-31.347 31.347,-31.347l106.338,-0c0.601,-0 1.172,-0.259 1.568,-0.711c0.395,-0.451 0.577,-1.052 0.498,-1.647c-1.17,-8.792 -5.291,-39.78 -6.903,-51.901c-0.11,-0.831 0.288,-1.648 1.012,-2.072c0.723,-0.424 1.631,-0.373 2.302,0.13c15.106,11.309 68.483,51.272 74.511,55.785c0.36,0.27 0.798,0.416 1.248,0.416c19.512,-0 444.231,-0 444.231,-0c17.301,-0 31.348,14.046 31.348,31.347l-0,84.402Z" style="fill:#fff;"/><g><rect x="1526.69" y="754.755" width="8.76" height="48.114" style="fill:#3c3c3c;fill-rule:nonzero;"/><path d="M1560.6,767.241c-4.532,-0 -8.542,1.569 -12.028,4.707c-3.966,3.617 -5.949,8.149 -5.949,13.597c-0,5.055 1.754,9.359 5.262,12.911c3.509,3.552 7.747,5.328 12.715,5.328c3.4,-0 6.505,-0.806 9.316,-2.419c2.811,-1.612 5.033,-3.846 6.668,-6.701c1.634,-2.854 2.451,-5.916 2.451,-9.184c0,-3.269 -0.817,-6.309 -2.451,-9.12c-1.635,-2.811 -3.89,-5.033 -6.766,-6.668c-2.877,-1.634 -5.949,-2.451 -9.218,-2.451Zm0.131,8.237c2.746,-0 5.012,0.926 6.799,2.778c1.786,1.852 2.68,4.26 2.68,7.224c-0,3.007 -0.915,5.458 -2.746,7.354c-1.83,1.896 -4.096,2.844 -6.798,2.844c-2.703,-0 -4.947,-0.948 -6.734,-2.844c-1.787,-1.896 -2.68,-4.347 -2.68,-7.354c-0,-2.92 0.904,-5.317 2.713,-7.191c1.809,-1.874 4.064,-2.811 6.766,-2.811Z" style="fill:#3c3c3c;fill-rule:nonzero;"/><path d="M1583.39,768.156l14.839,34.713l5.622,-0l14.774,-34.713l-8.825,0l-8.76,20.462l-8.76,-20.462l-8.89,0Z" style="fill:#3c3c3c;fill-rule:nonzero;"/><path d="M1659.59,788.029l-0,-1.634c-0,-5.753 -1.722,-10.383 -5.164,-13.892c-3.443,-3.508 -7.889,-5.262 -13.336,-5.262c-5.143,-0 -9.425,1.743 -12.846,5.23c-3.421,3.486 -5.132,7.888 -5.132,13.205c0,5.186 1.722,9.501 5.165,12.943c3.443,3.443 7.888,5.165 13.336,5.165c3.486,-0 6.504,-0.621 9.054,-1.863c2.549,-1.242 4.739,-3.171 6.57,-5.786l-7.322,-3.464c-2.31,2.266 -5.099,3.399 -8.368,3.399c-2.745,-0 -5.001,-0.719 -6.766,-2.157c-1.765,-1.439 -2.843,-3.4 -3.236,-5.884l28.045,0Zm-8.76,-6.864l-18.892,0c1.002,-2.135 2.07,-3.639 3.203,-4.511c1.83,-1.351 3.966,-2.026 6.406,-2.026c2.223,-0 4.184,0.61 5.884,1.83c1.699,1.221 2.833,2.79 3.399,4.707Z" style="fill:#3c3c3c;fill-rule:nonzero;"/><path d="M1683.01,768.156l13.205,32.098l-7.126,15.297l9.022,-0l21.768,-47.395l-8.956,0l-9.936,21.769l-9.021,-21.769l-8.956,0Z" style="fill:#3c3c3c;fill-rule:nonzero;"/><path d="M1742.14,767.241c-4.533,-0 -8.542,1.569 -12.029,4.707c-3.966,3.617 -5.949,8.149 -5.949,13.597c0,5.055 1.755,9.359 5.263,12.911c3.508,3.552 7.747,5.328 12.715,5.328c3.399,-0 6.504,-0.806 9.315,-2.419c2.811,-1.612 5.034,-3.846 6.668,-6.701c1.635,-2.854 2.452,-5.916 2.452,-9.184c-0,-3.269 -0.817,-6.309 -2.452,-9.12c-1.634,-2.811 -3.889,-5.033 -6.766,-6.668c-2.876,-1.634 -5.949,-2.451 -9.217,-2.451Zm0.131,8.237c2.745,-0 5.011,0.926 6.798,2.778c1.787,1.852 2.681,4.26 2.681,7.224c-0,3.007 -0.916,5.458 -2.746,7.354c-1.831,1.896 -4.097,2.844 -6.799,2.844c-2.702,-0 -4.946,-0.948 -6.733,-2.844c-1.787,-1.896 -2.68,-4.347 -2.68,-7.354c-0,-2.92 0.904,-5.317 2.713,-7.191c1.808,-1.874 4.064,-2.811 6.766,-2.811Z" style="fill:#3c3c3c;fill-rule:nonzero;"/><path d="M1768.66,768.156l0,14.447c0,5.579 0.349,9.414 1.046,11.506c0.916,3.05 2.561,5.426 4.936,7.125c2.375,1.7 5.459,2.55 9.25,2.55c3.487,-0 6.374,-0.741 8.662,-2.223c2.288,-1.482 4.02,-3.573 5.197,-6.276c0.959,-2.222 1.438,-6.362 1.438,-12.42l0,-14.709l-8.76,0l0,16.997c0,3.268 -0.174,5.404 -0.523,6.406c-0.523,1.351 -1.285,2.375 -2.288,3.073c-1.002,0.697 -2.222,1.046 -3.661,1.046c-1.438,-0 -2.658,-0.36 -3.66,-1.079c-1.003,-0.719 -1.722,-1.7 -2.158,-2.942c-0.435,-1.242 -0.653,-3.497 -0.653,-6.766l-0,-16.735l-8.826,0Z" style="fill:#3c3c3c;fill-rule:nonzero;"/><path d="M1806.88,768.156l-0,34.713l8.629,-0l-0,-15.755c-0,-4.838 0.457,-8.084 1.373,-9.74c0.915,-1.657 2.048,-2.485 3.399,-2.485l0.196,0c0.654,0 1.438,0.24 2.353,0.719l2.681,-7.452c-1.221,-0.61 -2.397,-0.915 -3.53,-0.915c-1.613,-0 -3.084,0.447 -4.413,1.34c-1.329,0.893 -2.408,2.212 -3.236,3.955l0,-4.38l-7.452,0Z" style="fill:#3c3c3c;fill-rule:nonzero;"/><path d="M1871.35,772.994c-1.395,-1.831 -3.083,-3.247 -5.066,-4.25c-1.983,-1.002 -4.108,-1.503 -6.374,-1.503c-3.312,-0 -6.025,0.97 -8.139,2.909c-2.114,1.939 -3.171,4.282 -3.171,7.027c0,4.271 2.811,7.823 8.433,10.656l2.942,1.438c2.528,1.308 3.792,2.637 3.792,3.988c-0,0.697 -0.36,1.329 -1.079,1.896c-0.719,0.566 -1.645,0.85 -2.778,0.85c-1.046,-0 -2.266,-0.382 -3.661,-1.144c-1.395,-0.763 -2.593,-1.733 -3.596,-2.91l-5.36,5.884c3.051,3.966 7.104,5.949 12.159,5.949c3.792,-0 6.821,-1.035 9.087,-3.105c2.266,-2.07 3.399,-4.653 3.399,-7.747c0,-2.31 -0.621,-4.325 -1.863,-6.047c-1.242,-1.721 -3.541,-3.41 -6.897,-5.066l-3.203,-1.634c-1.394,-0.654 -2.266,-1.177 -2.615,-1.569c-0.348,-0.393 -0.523,-0.828 -0.523,-1.308c0,-0.61 0.284,-1.122 0.85,-1.536c0.567,-0.414 1.329,-0.621 2.288,-0.621l0.131,-0c1.743,-0 3.683,1.068 5.818,3.203l5.426,-5.36Z" style="fill:#3c3c3c;fill-rule:nonzero;"/><path d="M1880.81,755.343l0,12.813l-4.445,0l0,7.452l4.445,0l0,27.261l8.695,-0l-0,-27.261l5.164,0l0,-7.452l-5.164,0l-0,-12.813l-8.695,0Z" style="fill:#3c3c3c;fill-rule:nonzero;"/><path d="M1898.3,768.156l-0,34.713l8.629,-0l-0,-15.755c-0,-4.838 0.457,-8.084 1.373,-9.74c0.915,-1.657 2.048,-2.485 3.399,-2.485l0.196,0c0.654,0 1.438,0.24 2.353,0.719l2.681,-7.452c-1.221,-0.61 -2.397,-0.915 -3.53,-0.915c-1.613,-0 -3.084,0.447 -4.413,1.34c-1.329,0.893 -2.408,2.212 -3.236,3.955l0,-4.38l-7.452,0Z" style="fill:#3c3c3c;fill-rule:nonzero;"/><path d="M1957.05,788.029l-0,-1.634c-0,-5.753 -1.722,-10.383 -5.165,-13.892c-3.443,-3.508 -7.888,-5.262 -13.336,-5.262c-5.142,-0 -9.424,1.743 -12.845,5.23c-3.421,3.486 -5.132,7.888 -5.132,13.205c-0,5.186 1.721,9.501 5.164,12.943c3.443,3.443 7.889,5.165 13.336,5.165c3.487,-0 6.505,-0.621 9.054,-1.863c2.55,-1.242 4.74,-3.171 6.57,-5.786l-7.321,-3.464c-2.31,2.266 -5.099,3.399 -8.368,3.399c-2.746,-0 -5.001,-0.719 -6.766,-2.157c-1.765,-1.439 -2.844,-3.4 -3.236,-5.884l28.045,0Zm-8.76,-6.864l-18.893,0c1.003,-2.135 2.07,-3.639 3.203,-4.511c1.831,-1.351 3.966,-2.026 6.407,-2.026c2.223,-0 4.184,0.61 5.883,1.83c1.7,1.221 2.833,2.79 3.4,4.707Z" style="fill:#3c3c3c;fill-rule:nonzero;"/><path d="M1990.76,768.156l0,3.792c-1.569,-1.569 -3.268,-2.746 -5.099,-3.53c-1.83,-0.785 -3.791,-1.177 -5.883,-1.177c-4.533,-0 -8.379,1.71 -11.539,5.132c-3.159,3.421 -4.739,7.812 -4.739,13.172c-0,5.186 1.634,9.523 4.903,13.009c3.268,3.487 7.147,5.23 11.636,5.23c2.005,-0 3.868,-0.36 5.589,-1.079c1.722,-0.719 3.432,-1.885 5.132,-3.497l0,3.661l8.695,-0l-0,-34.713l-8.695,0Zm-9.152,7.126c2.746,-0 5.023,0.937 6.831,2.811c1.809,1.874 2.713,4.314 2.713,7.321c0,3.095 -0.904,5.6 -2.713,7.518c-1.808,1.918 -4.085,2.876 -6.831,2.876c-2.658,0 -4.892,-0.969 -6.701,-2.909c-1.808,-1.939 -2.713,-4.412 -2.713,-7.419c0,-2.964 0.894,-5.404 2.681,-7.322c1.787,-1.918 4.031,-2.876 6.733,-2.876Z" style="fill:#3c3c3c;fill-rule:nonzero;"/><path d="M2008.97,767.895l0,34.843l8.76,-0l0,-15.493c0,-3.356 0.284,-5.818 0.85,-7.387c0.567,-1.569 1.46,-2.79 2.68,-3.661c1.177,-0.828 2.506,-1.264 3.988,-1.308c0.068,-0.002 0.135,-0.003 0.203,-0.003c1.141,-0 2.184,0.35 3.131,1.049c0.915,0.654 1.591,1.7 2.027,3.138c0.479,1.526 0.719,3.77 0.719,6.734l-0,16.931l8.76,-0l-0,-15.755c-0,-3.312 0.305,-5.731 0.915,-7.256c0.61,-1.569 1.482,-2.746 2.615,-3.53c1.176,-0.828 2.527,-1.264 4.053,-1.308c0.055,-0.001 0.109,-0.002 0.163,-0.002c1.837,0 3.243,0.72 4.217,2.16c1.002,1.525 1.503,4.183 1.503,7.975l0,17.716l8.76,-0l0,-20.462c0,-4.227 -0.392,-7.256 -1.177,-9.086c-0.784,-1.831 -2.135,-3.334 -4.053,-4.511c-1.83,-1.133 -4.009,-1.7 -6.537,-1.7c-2.397,0 -4.619,0.523 -6.668,1.569c-1.917,1.003 -3.617,2.572 -5.099,4.707c-1.089,-2.092 -2.484,-3.661 -4.184,-4.707c-1.699,-1.046 -3.682,-1.569 -5.948,-1.569c-2.136,0 -4.119,0.393 -5.949,1.177c-1.787,0.741 -3.443,1.983 -4.969,3.726l0,-3.987l-8.76,-0Z" style="fill:#3c3c3c;fill-rule:nonzero;"/><path d="M2071.7,754.755l0,34.32l8.825,0l0,-34.32l-8.825,-0Zm4.446,38.112c-1.526,-0 -2.822,0.523 -3.89,1.569c-1.068,1.046 -1.602,2.331 -1.602,3.857c0,1.525 0.534,2.821 1.602,3.889c1.068,1.068 2.364,1.602 3.89,1.602c1.481,-0 2.767,-0.545 3.857,-1.634c1.089,-1.09 1.634,-2.376 1.634,-3.857c-0,-1.482 -0.534,-2.757 -1.602,-3.825c-1.068,-1.067 -2.364,-1.601 -3.889,-1.601Z" style="fill:#3c3c3c;fill-rule:nonzero;"/></g></g></g><g><path d="M1111.41,659.005c-0,-5.524 -2.194,-10.822 -6.1,-14.728c-3.907,-3.906 -9.205,-6.101 -14.729,-6.101l-895.796,0c-5.524,0 -10.821,2.195 -14.728,6.101c-3.906,3.906 -6.101,9.204 -6.101,14.728l0,146.466c0,5.525 2.195,10.823 6.101,14.729c3.907,3.906 9.204,6.101 14.728,6.101l895.796,0c5.524,0 10.822,-2.195 14.729,-6.101c3.906,-3.906 6.1,-9.204 6.1,-14.729l-0,-146.466Z" style="fill:#f60;"/><g><path d="M385.756,671.206l-0,26.642l-9.243,0l0,15.496l9.243,0l-0,56.682l18.079,0l-0,-56.682l10.738,0l0,-15.496l-10.738,0l-0,-26.642l-18.079,0Z" style="fill:#fff;fill-rule:nonzero;"/><path d="M431.428,668.08c-3.171,0 -5.89,1.132 -8.156,3.398c-2.265,2.266 -3.398,4.984 -3.398,8.156c-0,3.353 1.133,6.185 3.398,8.496c2.266,2.31 5.029,3.465 8.292,3.465c3.081,0 5.754,-1.132 8.02,-3.398c2.265,-2.265 3.398,-5.029 3.398,-8.291c0,-3.262 -1.133,-6.049 -3.398,-8.36c-2.266,-2.311 -4.984,-3.466 -8.156,-3.466Zm-9.107,29.768l-0,72.178l18.214,0l0,-72.178l-18.214,0Z" style="fill:#fff;fill-rule:nonzero;"/><path d="M474.79,697.848l-18.079,0l0,98.549l18.079,0l-0,-33.982c3.534,3.353 7.09,5.777 10.67,7.273c3.58,1.494 7.454,2.242 11.622,2.242c9.333,-0 17.399,-3.625 24.195,-10.875c6.797,-7.249 10.195,-16.266 10.195,-27.049c0,-11.147 -3.285,-20.276 -9.855,-27.391c-6.569,-7.113 -14.567,-10.669 -23.991,-10.669c-4.35,-0 -8.428,0.815 -12.234,2.446c-3.806,1.631 -7.34,4.078 -10.602,7.34l-0,-7.884Zm19.029,14.816c5.619,0 10.286,1.994 14.002,5.982c3.715,3.986 5.573,9.061 5.573,15.224c-0,6.252 -1.881,11.395 -5.642,15.427c-3.76,4.034 -8.404,6.049 -13.933,6.049c-5.709,0 -10.444,-1.993 -14.204,-5.98c-3.761,-3.988 -5.641,-9.198 -5.641,-15.632c-0,-6.253 1.88,-11.328 5.641,-15.224c3.76,-3.897 8.495,-5.846 14.204,-5.846Z" style="fill:#fff;fill-rule:nonzero;"/><path d="M540.036,697.848l24.739,34.118l-27.458,38.06l20.797,0l16.991,-23.651l17.263,23.651l21.069,0l-27.865,-38.06l24.739,-34.118l-20.797,0l-14.409,19.71l-14.136,-19.71l-20.933,0Z" style="fill:#fff;fill-rule:nonzero;"/><path d="M622.001,697.304l0,72.451l18.215,0l-0,-32.215c-0,-6.978 0.589,-12.098 1.767,-15.36c1.178,-3.263 3.035,-5.8 5.573,-7.612c2.447,-1.722 5.211,-2.628 8.291,-2.719c0.142,-0.005 0.281,-0.008 0.421,-0.008c2.373,0 4.543,0.728 6.512,2.183c1.903,1.359 3.307,3.534 4.214,6.524c0.997,3.172 1.495,7.839 1.495,14.002l-0,35.205l18.214,0l0,-32.759c0,-6.887 0.634,-11.917 1.904,-15.088c1.268,-3.262 3.081,-5.709 5.436,-7.34c2.447,-1.722 5.256,-2.628 8.428,-2.719c0.114,-0.002 0.227,-0.004 0.34,-0.004c3.82,-0 6.743,1.497 8.767,4.49c2.084,3.172 3.127,8.7 3.127,16.583l-0,36.837l18.214,0l0,-42.546c0,-8.79 -0.816,-15.088 -2.447,-18.894c-1.631,-3.806 -4.439,-6.933 -8.427,-9.38c-3.806,-2.355 -8.337,-3.533 -13.593,-3.533c-4.984,0 -9.606,1.087 -13.865,3.262c-3.987,2.084 -7.521,5.346 -10.602,9.787c-2.265,-4.35 -5.166,-7.612 -8.7,-9.787c-3.534,-2.175 -7.657,-3.262 -12.369,-3.262c-4.441,0 -8.564,0.815 -12.37,2.446c-3.715,1.541 -7.159,4.124 -10.33,7.749l-0,-8.293l-18.215,0Z" style="fill:#fff;fill-rule:nonzero;"/><path d="M745.425,697.848l-0,72.178l17.942,0l0,-32.758c0,-10.059 0.952,-16.81 2.855,-20.253c1.903,-3.444 4.26,-5.166 7.068,-5.166l0.408,0c1.36,0 2.991,0.498 4.894,1.495l5.573,-15.496c-2.538,-1.268 -4.985,-1.902 -7.34,-1.902c-3.354,-0 -6.412,0.928 -9.176,2.786c-2.763,1.857 -5.006,4.599 -6.728,8.223l0,-9.107l-15.496,0Z" style="fill:#fff;fill-rule:nonzero;"/><path d="M802.923,751.133c-2.9,0 -5.369,0.997 -7.409,2.99c-2.038,1.994 -3.058,4.441 -3.058,7.34c0,2.9 1.02,5.37 3.058,7.409c2.04,2.038 4.509,3.058 7.409,3.058c2.899,-0 5.369,-1.02 7.408,-3.058c2.039,-2.039 3.058,-4.509 3.058,-7.409c0,-2.899 -1.019,-5.346 -3.058,-7.34c-2.039,-1.993 -4.509,-2.99 -7.408,-2.99Z" style="fill:#fff;fill-rule:nonzero;"/><rect x="829.021" y="669.983" width="18.215" height="100.044" style="fill:#fff;"/><path d="M870.616,668.08c-3.172,0 -5.89,1.132 -8.156,3.398c-2.265,2.266 -3.398,4.984 -3.398,8.156c-0,3.353 1.133,6.185 3.398,8.496c2.266,2.31 5.029,3.465 8.292,3.465c3.081,0 5.754,-1.132 8.019,-3.398c2.266,-2.265 3.399,-5.029 3.399,-8.291c0,-3.262 -1.133,-6.049 -3.399,-8.36c-2.265,-2.311 -4.984,-3.466 -8.155,-3.466Zm-9.107,29.768l-0,72.178l18.214,0l0,-72.178l-18.214,0Z" style="fill:#fff;fill-rule:nonzero;"/><path d="M888.151,697.848l30.856,72.178l11.689,0l30.72,-72.178l-18.35,0l-18.215,42.547l-18.214,-42.547l-18.486,0Z" style="fill:#fff;fill-rule:nonzero;"/><path d="M1044.47,739.171l0,-3.398c0,-11.962 -3.579,-21.591 -10.738,-28.885c-7.159,-7.296 -16.402,-10.942 -27.73,-10.942c-10.693,-0 -19.597,3.625 -26.71,10.874c-7.114,7.249 -10.67,16.402 -10.67,27.457c0,10.784 3.579,19.755 10.738,26.915c7.159,7.159 16.402,10.738 27.73,10.738c7.249,-0 13.525,-1.291 18.826,-3.874c5.301,-2.583 9.854,-6.593 13.661,-12.03l-15.224,-7.204c-4.803,4.712 -10.603,7.068 -17.399,7.068c-5.709,-0 -10.399,-1.495 -14.069,-4.486c-3.67,-2.99 -5.913,-7.067 -6.728,-12.233l58.313,0Zm-18.214,-14.272l-39.284,-0c2.084,-4.441 4.305,-7.567 6.661,-9.38c3.806,-2.809 8.246,-4.213 13.321,-4.213c4.621,-0 8.699,1.268 12.234,3.805c3.533,2.538 5.89,5.8 7.068,9.788Z" style="fill:#fff;fill-rule:nonzero;"/></g><path d="M248.02,757.787l20.691,-0l-0,-25.501l21.601,19.078l21.6,-19.078l0,25.501l20.691,-0c-8.664,14.299 -24.369,23.861 -42.291,23.861c-17.923,0 -33.629,-9.562 -42.292,-23.861Zm-4.896,-10.862c-1.445,-4.641 -2.223,-9.573 -2.223,-14.686c-0,-27.271 22.14,-49.411 49.411,-49.411c27.269,0 49.409,22.14 49.409,49.411c0,5.113 -0.777,10.045 -2.223,14.686l-14.536,0l0,-40.235l-32.65,29.657l-32.652,-29.657l-0,40.235l-14.536,0Z" style="fill:#fff;"/></g></g></svg>